<svg id="SvgjsSvg1314" width="966.90625" height="2115.75" xmlns="http://www.w3.org/2000/svg" version="1.1" xmlns:xlink="http://www.w3.org/1999/xlink" xmlns:svgjs="http://svgjs.com/svgjs"><defs id="SvgjsDefs1315"></defs><g id="SvgjsG1316"><path id="SvgjsPath1317" d="M751.0000000000002 1976.75L751 2068.75" stroke="#ff6666" stroke-width="10" fill="none"></path></g><g id="SvgjsG1318" transform="translate(742,1954.75)"><path id="SvgjsPath1319" d="M 0 11C 0 -3.6666666666666665 18 -3.6666666666666665 18 11C 18 25.666666666666668 0 25.666666666666668 0 11Z" stroke="rgba(255,102,102,1)" stroke-width="2" fill-opacity="1" fill="#ffffff"></path><g id="SvgjsG1320"><text id="SvgjsText1321" font-family="微软雅黑" text-anchor="middle" font-size="13px" width="0" fill="#323232" font-weight="400" align="middle" anchor="middle" family="微软雅黑" size="13px" weight="400" font-style="" opacity="1" y="1.05" transform="rotate(0)"></text></g></g><g id="SvgjsG1322" transform="translate(742,2068.75)"><path id="SvgjsPath1323" d="M 0 11C 0 -3.6666666666666665 18 -3.6666666666666665 18 11C 18 25.666666666666668 0 25.666666666666668 0 11Z" stroke="rgba(255,102,102,1)" stroke-width="2" fill-opacity="1" fill="#ffffff"></path><g id="SvgjsG1324"><text id="SvgjsText1325" font-family="微软雅黑" text-anchor="middle" font-size="13px" width="0" fill="#323232" font-weight="400" align="middle" anchor="middle" family="微软雅黑" size="13px" weight="400" font-style="" opacity="1" y="1.05" transform="rotate(0)"></text></g></g><g id="SvgjsG1326" transform="translate(772,2068.75)"><path id="SvgjsPath1327" d="M 0 0L 142 0L 142 22L 0 22Z" stroke="none" fill="none"></path><g id="SvgjsG1328"><text id="SvgjsText1329" font-family="微软雅黑" text-anchor="start" font-size="17px" width="122px" fill="#323232" font-weight="700" align="middle" anchor="start" family="微软雅黑" size="17px" weight="700" font-style="" opacity="1" y="-2.05" transform="rotate(0)"><tspan id="SvgjsTspan1330" dy="21" x="10"><tspan id="SvgjsTspan1331" style="text-decoration:;">青龙山地铁小镇</tspan></tspan></text></g></g><g id="SvgjsG1332" transform="translate(772,1954.75)"><path id="SvgjsPath1333" d="M 0 0L 142 0L 142 22L 0 22Z" stroke="none" fill="none"></path><g id="SvgjsG1334"><text id="SvgjsText1335" font-family="微软雅黑" text-anchor="start" font-size="17px" width="122px" fill="#323232" font-weight="700" align="middle" anchor="start" family="微软雅黑" size="17px" weight="700" font-style="" opacity="1" y="-2.05" transform="rotate(0)"><tspan id="SvgjsTspan1336" dy="21" x="10"><tspan id="SvgjsTspan1337" style="text-decoration:;">纸坊大街</tspan></tspan></text></g></g><g id="SvgjsG1338" transform="translate(772,1846.75)"><path id="SvgjsPath1339" d="M 0 0L 142 0L 142 22L 0 22Z" stroke="none" fill="none"></path><g id="SvgjsG1340"><text id="SvgjsText1341" font-family="微软雅黑" text-anchor="start" font-size="17px" width="122px" fill="#323232" font-weight="700" align="middle" anchor="start" family="微软雅黑" size="17px" weight="700" font-style="" opacity="1" y="-2.05" transform="rotate(0)"><tspan id="SvgjsTspan1342" dy="21" x="10"><tspan id="SvgjsTspan1343" style="text-decoration:;">北华街</tspan></tspan></text></g></g><g id="SvgjsG1344" transform="translate(772,1734.75)"><path id="SvgjsPath1345" d="M 0 0L 142 0L 142 22L 0 22Z" stroke="none" fill="none"></path><g id="SvgjsG1346"><text id="SvgjsText1347" font-family="微软雅黑" text-anchor="start" font-size="17px" width="122px" fill="#323232" font-weight="700" align="middle" anchor="start" family="微软雅黑" size="17px" weight="700" font-style="" opacity="1" y="-2.05" transform="rotate(0)"><tspan id="SvgjsTspan1348" dy="21" x="10"><tspan id="SvgjsTspan1349" style="text-decoration:;">谭鑫培公园</tspan></tspan></text></g></g><g id="SvgjsG1350" transform="translate(772,1625.75)"><path id="SvgjsPath1351" d="M 0 0L 142 0L 142 22L 0 22Z" stroke="none" fill="none"></path><g id="SvgjsG1352"><text id="SvgjsText1353" font-family="微软雅黑" text-anchor="start" font-size="17px" width="122px" fill="#323232" font-weight="700" align="middle" anchor="start" family="微软雅黑" size="17px" weight="700" font-style="" opacity="1" y="-2.05" transform="rotate(0)"><tspan id="SvgjsTspan1354" dy="21" x="10"><tspan id="SvgjsTspan1355" style="text-decoration:;">江夏客厅</tspan></tspan></text></g></g><g id="SvgjsG1356"><path id="SvgjsPath1357" d="M751.0000000000002 1868.75L751 1954.75" stroke="#ff6666" stroke-width="10" fill="none"></path></g><g id="SvgjsG1358" transform="translate(742,1846.75)"><path id="SvgjsPath1359" d="M 0 11C 0 -3.6666666666666665 18 -3.6666666666666665 18 11C 18 25.666666666666668 0 25.666666666666668 0 11Z" stroke="rgba(255,102,102,1)" stroke-width="2" fill-opacity="1" fill="#ffffff"></path><g id="SvgjsG1360"><text id="SvgjsText1361" font-family="微软雅黑" text-anchor="middle" font-size="13px" width="0" fill="#323232" font-weight="400" align="middle" anchor="middle" family="微软雅黑" size="13px" weight="400" font-style="" opacity="1" y="1.05" transform="rotate(0)"></text></g></g><g id="SvgjsG1362"><path id="SvgjsPath1363" d="M751 1756.75L751 1846.75" stroke="#ff6666" stroke-width="10" fill="none"></path></g><g id="SvgjsG1364" transform="translate(742,1734.75)"><path id="SvgjsPath1365" d="M 0 11C 0 -3.6666666666666665 18 -3.6666666666666665 18 11C 18 25.666666666666668 0 25.666666666666668 0 11Z" stroke="rgba(255,102,102,1)" stroke-width="2" fill-opacity="1" fill="#ffffff"></path><g id="SvgjsG1366"><text id="SvgjsText1367" font-family="微软雅黑" text-anchor="middle" font-size="13px" width="0" fill="#323232" font-weight="400" align="middle" anchor="middle" family="微软雅黑" size="13px" weight="400" font-style="" opacity="1" y="1.05" transform="rotate(0)"></text></g></g><g id="SvgjsG1368"><path id="SvgjsPath1369" d="M751 1647.75L751 1734.75" stroke="#ff6666" stroke-width="10" fill="none"></path></g><g id="SvgjsG1370" transform="translate(742,1625.75)"><path id="SvgjsPath1371" d="M 0 11C 0 -3.6666666666666665 18 -3.6666666666666665 18 11C 18 25.666666666666668 0 25.666666666666668 0 11Z" stroke="rgba(255,102,102,1)" stroke-width="2" fill-opacity="1" fill="#ffffff"></path><g id="SvgjsG1372"><text id="SvgjsText1373" font-family="微软雅黑" text-anchor="middle" font-size="13px" width="0" fill="#323232" font-weight="400" align="middle" anchor="middle" family="微软雅黑" size="13px" weight="400" font-style="" opacity="1" y="1.05" transform="rotate(0)"></text></g></g><g id="SvgjsG1374"><path id="SvgjsPath1375" d="M751 985.75L751 1075.75" stroke="#ff6666" stroke-width="10" fill="none"></path></g><g id="SvgjsG1376" transform="translate(742,963.75)"><path id="SvgjsPath1377" d="M 0 11C 0 -3.6666666666666665 18 -3.6666666666666665 18 11C 18 25.666666666666668 0 25.666666666666668 0 11Z" stroke="rgba(255,102,102,1)" stroke-width="2" fill-opacity="1" fill="#ffffff"></path><g id="SvgjsG1378"><text id="SvgjsText1379" font-family="微软雅黑" text-anchor="middle" font-size="13px" width="0" fill="#323232" font-weight="400" align="middle" anchor="middle" family="微软雅黑" size="13px" weight="400" font-style="" opacity="1" y="1.05" transform="rotate(0)"></text></g></g><g id="SvgjsG1380"><path id="SvgjsPath1381" d="M751 1097.75L751 1183.75" stroke="#ff6666" stroke-width="10" fill="none"></path></g><g id="SvgjsG1382" transform="translate(742,1075.75)"><path id="SvgjsPath1383" d="M 0 11C 0 -3.6666666666666665 18 -3.6666666666666665 18 11C 18 25.666666666666668 0 25.666666666666668 0 11Z" stroke="rgba(255,102,102,1)" stroke-width="2" fill-opacity="1" fill="#ffffff"></path><g id="SvgjsG1384"><text id="SvgjsText1385" font-family="微软雅黑" text-anchor="middle" font-size="13px" width="0" fill="#323232" font-weight="400" align="middle" anchor="middle" family="微软雅黑" size="13px" weight="400" font-style="" opacity="1" y="1.05" transform="rotate(0)"></text></g></g><g id="SvgjsG1386"><path id="SvgjsPath1387" d="M751.0000000000002 1205.75L751 1293.75" stroke="#ff6666" stroke-width="10" fill="none"></path></g><g id="SvgjsG1388" transform="translate(742,1183.75)"><path id="SvgjsPath1389" d="M 0 11C 0 -3.6666666666666665 18 -3.6666666666666665 18 11C 18 25.666666666666668 0 25.666666666666668 0 11Z" stroke="rgba(255,102,102,1)" stroke-width="2" fill-opacity="1" fill="#ffffff"></path><g id="SvgjsG1390"><text id="SvgjsText1391" font-family="微软雅黑" text-anchor="middle" font-size="13px" width="0" fill="#323232" font-weight="400" align="middle" anchor="middle" family="微软雅黑" size="13px" weight="400" font-style="" opacity="1" y="1.05" transform="rotate(0)"></text></g></g><g id="SvgjsG1392"><path id="SvgjsPath1393" d="M751.0000000000002 1315.75L751 1405.75" stroke="#ff6666" stroke-width="10" fill="none"></path></g><g id="SvgjsG1394" transform="translate(742,1293.75)"><path id="SvgjsPath1395" d="M 0 11C 0 -3.6666666666666665 18 -3.6666666666666665 18 11C 18 25.666666666666668 0 25.666666666666668 0 11Z" stroke="rgba(255,102,102,1)" stroke-width="2" fill-opacity="1" fill="#ffffff"></path><g id="SvgjsG1396"><text id="SvgjsText1397" font-family="微软雅黑" text-anchor="middle" font-size="13px" width="0" fill="#323232" font-weight="400" align="middle" anchor="middle" family="微软雅黑" size="13px" weight="400" font-style="" opacity="1" y="1.05" transform="rotate(0)"></text></g></g><g id="SvgjsG1398"><path id="SvgjsPath1399" d="M751 1427.75L751 1516.75" stroke="#ff6666" stroke-width="10" fill="none"></path></g><g id="SvgjsG1400" transform="translate(742,1405.75)"><path id="SvgjsPath1401" d="M 0 11C 0 -3.6666666666666665 18 -3.6666666666666665 18 11C 18 25.666666666666668 0 25.666666666666668 0 11Z" stroke="rgba(255,102,102,1)" stroke-width="2" fill-opacity="1" fill="#ffffff"></path><g id="SvgjsG1402"><text id="SvgjsText1403" font-family="微软雅黑" text-anchor="middle" font-size="13px" width="0" fill="#323232" font-weight="400" align="middle" anchor="middle" family="微软雅黑" size="13px" weight="400" font-style="" opacity="1" y="1.05" transform="rotate(0)"></text></g></g><g id="SvgjsG1404"><path id="SvgjsPath1405" d="M751 1538.75L751 1625.75" stroke="#ff6666" stroke-width="10" fill="none"></path></g><g id="SvgjsG1406" transform="translate(742,1516.75)"><path id="SvgjsPath1407" d="M 0 11C 0 -3.6666666666666665 18 -3.6666666666666665 18 11C 18 25.666666666666668 0 25.666666666666668 0 11Z" stroke="rgba(255,102,102,1)" stroke-width="2" fill-opacity="1" fill="#ffffff"></path><g id="SvgjsG1408"><text id="SvgjsText1409" font-family="微软雅黑" text-anchor="middle" font-size="13px" width="0" fill="#323232" font-weight="400" align="middle" anchor="middle" family="微软雅黑" size="13px" weight="400" font-style="" opacity="1" y="1.05" transform="rotate(0)"></text></g></g><g id="SvgjsG1410" transform="translate(772,1516.75)"><path id="SvgjsPath1411" d="M 0 0L 142 0L 142 22L 0 22Z" stroke="none" fill="none"></path><g id="SvgjsG1412"><text id="SvgjsText1413" font-family="微软雅黑" text-anchor="start" font-size="17px" width="122px" fill="#323232" font-weight="700" align="middle" anchor="start" family="微软雅黑" size="17px" weight="700" font-style="" opacity="1" y="-2.05" transform="rotate(0)"><tspan id="SvgjsTspan1414" dy="21" x="10"><tspan id="SvgjsTspan1415" style="text-decoration:;">大花岭</tspan></tspan></text></g></g><g id="SvgjsG1416" transform="translate(772,1405.75)"><path id="SvgjsPath1417" d="M 0 0L 142 0L 142 22L 0 22Z" stroke="none" fill="none"></path><g id="SvgjsG1418"><text id="SvgjsText1419" font-family="微软雅黑" text-anchor="start" font-size="17px" width="122px" fill="#323232" font-weight="700" align="middle" anchor="start" family="微软雅黑" size="17px" weight="700" font-style="" opacity="1" y="-2.05" transform="rotate(0)"><tspan id="SvgjsTspan1420" dy="21" x="10"><tspan id="SvgjsTspan1421" style="text-decoration:;">新路村</tspan></tspan></text></g></g><g id="SvgjsG1422" transform="translate(772,1293.75)"><path id="SvgjsPath1423" d="M 0 0L 142 0L 142 22L 0 22Z" stroke="none" fill="none"></path><g id="SvgjsG1424"><text id="SvgjsText1425" font-family="微软雅黑" text-anchor="start" font-size="17px" width="122px" fill="#323232" font-weight="700" align="middle" anchor="start" family="微软雅黑" size="17px" weight="700" font-style="" opacity="1" y="-2.05" transform="rotate(0)"><tspan id="SvgjsTspan1426" dy="21" x="10"><tspan id="SvgjsTspan1427" style="text-decoration:;">野芷湖</tspan></tspan></text></g></g><g id="SvgjsG1428" transform="translate(772,1183.75)"><path id="SvgjsPath1429" d="M 0 0L 142 0L 142 22L 0 22Z" stroke="none" fill="none"></path><g id="SvgjsG1430"><text id="SvgjsText1431" font-family="微软雅黑" text-anchor="start" font-size="17px" width="122px" fill="#323232" font-weight="700" align="middle" anchor="start" family="微软雅黑" size="17px" weight="700" font-style="" opacity="1" y="-2.05" transform="rotate(0)"><tspan id="SvgjsTspan1432" dy="21" x="10"><tspan id="SvgjsTspan1433" style="text-decoration:;">板桥</tspan></tspan></text></g></g><g id="SvgjsG1434" transform="translate(772,1075.75)"><path id="SvgjsPath1435" d="M 0 0L 142 0L 142 22L 0 22Z" stroke="none" fill="none"></path><g id="SvgjsG1436"><text id="SvgjsText1437" font-family="微软雅黑" text-anchor="start" font-size="17px" width="122px" fill="#323232" font-weight="700" align="middle" anchor="start" family="微软雅黑" size="17px" weight="700" font-style="" opacity="1" y="-2.05" transform="rotate(0)"><tspan id="SvgjsTspan1438" dy="21" x="10"><tspan id="SvgjsTspan1439" style="text-decoration:;">湖工大</tspan></tspan></text></g></g><g id="SvgjsG1440"><path id="SvgjsPath1441" d="M751 874.75L751 963.75" stroke="#ff6666" stroke-width="10" fill="none"></path></g><g id="SvgjsG1442" transform="translate(742,852.75)"><path id="SvgjsPath1443" d="M 0 11C 0 -3.6666666666666665 18 -3.6666666666666665 18 11C 18 25.666666666666668 0 25.666666666666668 0 11Z" stroke="rgba(255,102,102,1)" stroke-width="2" fill-opacity="1" fill="#ffffff"></path><g id="SvgjsG1444"><text id="SvgjsText1445" font-family="微软雅黑" text-anchor="middle" font-size="13px" width="0" fill="#323232" font-weight="400" align="middle" anchor="middle" family="微软雅黑" size="13px" weight="400" font-style="" opacity="1" y="1.05" transform="rotate(0)"></text></g></g><g id="SvgjsG1446"><path id="SvgjsPath1447" d="M751 765.75L751 852.75" stroke="#ff6666" stroke-width="10" fill="none"></path></g><g id="SvgjsG1448" transform="translate(742,743.75)"><path id="SvgjsPath1449" d="M 0 11C 0 -3.6666666666666665 18 -3.6666666666666665 18 11C 18 25.666666666666668 0 25.666666666666668 0 11Z" stroke="rgba(255,102,102,1)" stroke-width="2" fill-opacity="1" fill="#ffffff"></path><g id="SvgjsG1450"><text id="SvgjsText1451" font-family="微软雅黑" text-anchor="middle" font-size="13px" width="0" fill="#323232" font-weight="400" align="middle" anchor="middle" family="微软雅黑" size="13px" weight="400" font-style="" opacity="1" y="1.05" transform="rotate(0)"></text></g></g><g id="SvgjsG1452"><path id="SvgjsPath1453" d="M751 656.75L751 743.75" stroke="#ff6666" stroke-width="10" fill="none"></path></g><g id="SvgjsG1454" transform="translate(742,634.75)"><path id="SvgjsPath1455" d="M 0 11C 0 -3.6666666666666665 18 -3.6666666666666665 18 11C 18 25.666666666666668 0 25.666666666666668 0 11Z" stroke="rgba(255,102,102,1)" stroke-width="2" fill-opacity="1" fill="#ffffff"></path><g id="SvgjsG1456"><text id="SvgjsText1457" font-family="微软雅黑" text-anchor="middle" font-size="13px" width="0" fill="#323232" font-weight="400" align="middle" anchor="middle" family="微软雅黑" size="13px" weight="400" font-style="" opacity="1" y="1.05" transform="rotate(0)"></text></g></g><g id="SvgjsG1458"><path id="SvgjsPath1459" d="M751 543.75L751 634.75" stroke="#ff6666" stroke-width="10" fill="none"></path></g><g id="SvgjsG1460" transform="translate(742,521.75)"><path id="SvgjsPath1461" d="M 0 11C 0 -3.6666666666666665 18 -3.6666666666666665 18 11C 18 25.666666666666668 0 25.666666666666668 0 11Z" stroke="rgba(255,102,102,1)" stroke-width="2" fill-opacity="1" fill="#ffffff"></path><g id="SvgjsG1462"><text id="SvgjsText1463" font-family="微软雅黑" text-anchor="middle" font-size="13px" width="0" fill="#323232" font-weight="400" align="middle" anchor="middle" family="微软雅黑" size="13px" weight="400" font-style="" opacity="1" y="1.05" transform="rotate(0)"></text></g></g><g id="SvgjsG1464" transform="translate(772,963.75)"><path id="SvgjsPath1465" d="M 0 0L 142 0L 142 22L 0 22Z" stroke="none" fill="none"></path><g id="SvgjsG1466"><text id="SvgjsText1467" font-family="微软雅黑" text-anchor="start" font-size="17px" width="122px" fill="#323232" font-weight="700" align="middle" anchor="start" family="微软雅黑" size="17px" weight="700" font-style="" opacity="1" y="-2.05" transform="rotate(0)"><tspan id="SvgjsTspan1468" dy="21" x="10"><tspan id="SvgjsTspan1469" style="text-decoration:;">建安街</tspan></tspan></text></g></g><g id="SvgjsG1470" transform="translate(772,852.75)"><path id="SvgjsPath1471" d="M 0 0L 142 0L 142 22L 0 22Z" stroke="none" fill="none"></path><g id="SvgjsG1472"><text id="SvgjsText1473" font-family="微软雅黑" text-anchor="start" font-size="17px" width="122px" fill="#323232" font-weight="700" align="middle" anchor="start" family="微软雅黑" size="17px" weight="700" font-style="" opacity="1" y="-2.05" transform="rotate(0)"><tspan id="SvgjsTspan1474" dy="21" x="10"><tspan id="SvgjsTspan1475" style="text-decoration:;">武昌火车站</tspan></tspan></text></g></g><g id="SvgjsG1476" transform="translate(772,743.75)"><path id="SvgjsPath1477" d="M 0 0L 142 0L 142 22L 0 22Z" stroke="none" fill="none"></path><g id="SvgjsG1478"><text id="SvgjsText1479" font-family="微软雅黑" text-anchor="start" font-size="17px" width="122px" fill="#323232" font-weight="700" align="middle" anchor="start" family="微软雅黑" size="17px" weight="700" font-style="" opacity="1" y="-2.05" transform="rotate(0)"><tspan id="SvgjsTspan1480" dy="21" x="10"><tspan id="SvgjsTspan1481" style="text-decoration:;">小东门</tspan></tspan></text></g></g><g id="SvgjsG1482" transform="translate(772,634.75)"><path id="SvgjsPath1483" d="M 0 0L 142 0L 142 22L 0 22Z" stroke="none" fill="none"></path><g id="SvgjsG1484"><text id="SvgjsText1485" font-family="微软雅黑" text-anchor="start" font-size="17px" width="122px" fill="#323232" font-weight="700" align="middle" anchor="start" family="微软雅黑" size="17px" weight="700" font-style="" opacity="1" y="-2.05" transform="rotate(0)"><tspan id="SvgjsTspan1486" dy="21" x="10"><tspan id="SvgjsTspan1487" style="text-decoration:;">螃蟹岬</tspan></tspan></text></g></g><g id="SvgjsG1488" transform="matrix(0.9063077870366499,0.42261826174069944,-0.42261826174069944,0.9063077870366499,773.2907368505054,389.9770499869306)"><path id="SvgjsPath1489" d="M 0 11C 0 -3.6666666666666665 18 -3.6666666666666665 18 11C 18 25.666666666666668 0 25.666666666666668 0 11Z" stroke="rgba(255,102,102,1)" stroke-width="2" fill-opacity="1" fill="#ffffff"></path><g id="SvgjsG1490"><text id="SvgjsText1491" font-family="微软雅黑" text-anchor="middle" font-size="13px" width="0" fill="#323232" font-weight="400" align="middle" anchor="middle" family="微软雅黑" size="13px" weight="400" font-style="" opacity="1" y="1.05" transform="rotate(0)"></text></g></g><g id="SvgjsG1492"><path id="SvgjsPath1493" d="M772.7262199721426 414.75C 746.3522727272723 506.5 750.1022727272723 459 751 521.75" stroke="#ff6666" stroke-width="10" fill="none"></path></g><g id="SvgjsG1494"><path id="SvgjsPath1495" d="M760 302.22238386715276C 813.8522727272723 327.75 816.3522727272723 307.75 780.8711826252579 392.75" stroke="#ff6666" stroke-width="10" fill="none"></path></g><g id="SvgjsG1496" transform="matrix(0.9396926207859084,0.3420201433256687,-0.3420201433256687,0.9396926207859084,746.3049879895092,285.8113961704865)"><path id="SvgjsPath1497" d="M 0 11C 0 -3.6666666666666665 18 -3.6666666666666665 18 11C 18 25.666666666666668 0 25.666666666666668 0 11Z" stroke="rgba(255,102,102,1)" stroke-width="2" fill-opacity="1" fill="#ffffff"></path><g id="SvgjsG1498"><text id="SvgjsText1499" font-family="微软雅黑" text-anchor="middle" font-size="13px" width="0" fill="#323232" font-weight="400" align="middle" anchor="middle" family="微软雅黑" size="13px" weight="400" font-style="" opacity="1" y="1.05" transform="rotate(0)"></text></g></g><g id="SvgjsG1500" transform="translate(772,521.75)"><path id="SvgjsPath1501" d="M 0 0L 142 0L 142 22L 0 22Z" stroke="none" fill="none"></path><g id="SvgjsG1502"><text id="SvgjsText1503" font-family="微软雅黑" text-anchor="start" font-size="17px" width="122px" fill="#323232" font-weight="700" align="middle" anchor="start" family="微软雅黑" size="17px" weight="700" font-style="" opacity="1" y="-2.05" transform="rotate(0)"><tspan id="SvgjsTspan1504" dy="21" x="10"><tspan id="SvgjsTspan1505" style="text-decoration:;">新河街</tspan></tspan></text></g></g><g id="SvgjsG1506" transform="translate(799.9132617778566,392.75)"><path id="SvgjsPath1507" d="M 0 0L 142 0L 142 22L 0 22Z" stroke="none" fill="none"></path><g id="SvgjsG1508"><text id="SvgjsText1509" font-family="微软雅黑" text-anchor="start" font-size="17px" width="122px" fill="#323232" font-weight="700" align="middle" anchor="start" family="微软雅黑" size="17px" weight="700" font-style="" opacity="1" y="-2.05" transform="rotate(0)"><tspan id="SvgjsTspan1510" dy="21" x="10"><tspan id="SvgjsTspan1511" style="text-decoration:;">湖北大学</tspan></tspan></text></g></g><g id="SvgjsG1512" transform="translate(563.0903989506907,271.75)"><path id="SvgjsPath1513" d="M 0 11C 0 -3.6666666666666665 18 -3.6666666666666665 18 11C 18 25.666666666666668 0 25.666666666666668 0 11Z" stroke="rgba(255,102,102,1)" stroke-width="2" fill-opacity="1" fill="#ffffff"></path><g id="SvgjsG1514"><text id="SvgjsText1515" font-family="微软雅黑" text-anchor="middle" font-size="13px" width="0" fill="#323232" font-weight="400" align="middle" anchor="middle" family="微软雅黑" size="13px" weight="400" font-style="" opacity="1" y="1.05" transform="rotate(0)"></text></g></g><g id="SvgjsG1516"><path id="SvgjsPath1517" d="M581.0903989506907 282.75C 713.8522727272723 277.75 677.6022727272725 277.75 742 296.2299970852277" stroke="#ff6666" stroke-width="10" fill="none"></path></g><g id="SvgjsG1518" transform="translate(430,271.75)"><path id="SvgjsPath1519" d="M 0 11C 0 -3.6666666666666665 18 -3.6666666666666665 18 11C 18 25.666666666666668 0 25.666666666666668 0 11Z" stroke="rgba(255,102,102,1)" stroke-width="2" fill-opacity="1" fill="#ffffff"></path><g id="SvgjsG1520"><text id="SvgjsText1521" font-family="微软雅黑" text-anchor="middle" font-size="13px" width="0" fill="#323232" font-weight="400" align="middle" anchor="middle" family="微软雅黑" size="13px" weight="400" font-style="" opacity="1" y="1.05" transform="rotate(0)"></text></g></g><g id="SvgjsG1522"><path id="SvgjsPath1523" d="M448 282.75000000000006L563.0903989506907 282.75" stroke="#ff6666" stroke-width="10" fill="none"></path></g><g id="SvgjsG1524" transform="matrix(0.9848077530122082,-0.17364817766692953,0.17364817766692953,0.9848077530122082,338.81699333496016,302.45614460493056)"><path id="SvgjsPath1525" d="M 0 11C 0 -3.6666666666666665 18 -3.6666666666666665 18 11C 18 25.666666666666668 0 25.666666666666668 0 11Z" stroke="rgba(255,102,102,1)" stroke-width="2" fill-opacity="1" fill="#ffffff"></path><g id="SvgjsG1526"><text id="SvgjsText1527" font-family="微软雅黑" text-anchor="middle" font-size="13px" width="0" fill="#323232" font-weight="400" align="middle" anchor="middle" family="微软雅黑" size="13px" weight="400" font-style="" opacity="1" y="1.05" transform="rotate(0)"></text></g></g><g id="SvgjsG1528"><path id="SvgjsPath1529" d="M358.59039895069066 310.20498322442046L430 282.75" stroke="#ff6666" stroke-width="10" fill="none"></path></g><g id="SvgjsG1530" transform="translate(268.28975567894736,323.7651922469878)"><path id="SvgjsPath1531" d="M 0 11C 0 -3.6666666666666665 18 -3.6666666666666665 18 11C 18 25.666666666666668 0 25.666666666666668 0 11Z" stroke="rgba(255,102,102,1)" stroke-width="2" fill-opacity="1" fill="#ffffff"></path><g id="SvgjsG1532"><text id="SvgjsText1533" font-family="微软雅黑" text-anchor="middle" font-size="13px" width="0" fill="#323232" font-weight="400" align="middle" anchor="middle" family="微软雅黑" size="13px" weight="400" font-style="" opacity="1" y="1.05" transform="rotate(0)"></text></g></g><g id="SvgjsG1534"><path id="SvgjsPath1535" d="M286.4171803231808 334.82992915050886L340.59039895069066 313.24739772796005" stroke="#ff6666" stroke-width="10" fill="none"></path></g><g id="SvgjsG1536" transform="translate(180.9708337332993,324.75)"><path id="SvgjsPath1537" d="M 0 11C 0 -3.6666666666666665 18 -3.6666666666666665 18 11C 18 25.666666666666668 0 25.666666666666668 0 11Z" stroke="rgba(255,102,102,1)" stroke-width="2" fill-opacity="1" fill="#ffffff"></path><g id="SvgjsG1538"><text id="SvgjsText1539" font-family="微软雅黑" text-anchor="middle" font-size="13px" width="0" fill="#323232" font-weight="400" align="middle" anchor="middle" family="微软雅黑" size="13px" weight="400" font-style="" opacity="1" y="1.05" transform="rotate(0)"></text></g></g><g id="SvgjsG1540"><path id="SvgjsPath1541" d="M268.1551026953741 334.7414492929509L198.9708337332993 335.75" stroke="#ff6666" stroke-width="10" fill="none"></path></g><g id="SvgjsG1542" transform="translate(25,228.50000000000003)"><path id="SvgjsPath1543" d="M 0 11C 0 -3.6666666666666665 18 -3.6666666666666665 18 11C 18 25.666666666666668 0 25.666666666666668 0 11Z" stroke="rgba(255,102,102,1)" stroke-width="2" fill-opacity="1" fill="#ffffff"></path><g id="SvgjsG1544"><text id="SvgjsText1545" font-family="微软雅黑" text-anchor="middle" font-size="13px" width="0" fill="#323232" font-weight="400" align="middle" anchor="middle" family="微软雅黑" size="13px" weight="400" font-style="" opacity="1" y="1.05" transform="rotate(0)"></text></g></g><g id="SvgjsG1546"><path id="SvgjsPath1547" d="M180.9708337332993 335.75C 109.304347826087 339.054347826087 33.6521739130435 337.3152173913044 34 250.5" stroke="#ff6666" stroke-width="10" fill="none"></path></g><g id="SvgjsG1548"><path id="SvgjsPath1549" d="M34 148.75L34 228.50000000000003" stroke="#ff6666" stroke-width="10" fill="none"></path></g><g id="SvgjsG1550" transform="translate(25,126.75)"><path id="SvgjsPath1551" d="M 0 11C 0 -3.6666666666666665 18 -3.6666666666666665 18 11C 18 25.666666666666668 0 25.666666666666668 0 11Z" stroke="rgba(255,102,102,1)" stroke-width="2" fill-opacity="1" fill="#ffffff"></path><g id="SvgjsG1552"><text id="SvgjsText1553" font-family="微软雅黑" text-anchor="middle" font-size="13px" width="0" fill="#323232" font-weight="400" align="middle" anchor="middle" family="微软雅黑" size="13px" weight="400" font-style="" opacity="1" y="1.05" transform="rotate(0)"></text></g></g><g id="SvgjsG1554"><path id="SvgjsPath1555" d="M34 47L34 126.75" stroke="#ff6666" stroke-width="10" fill="none"></path></g><g id="SvgjsG1556" transform="translate(25,25)"><path id="SvgjsPath1557" d="M 0 11C 0 -3.6666666666666665 18 -3.6666666666666665 18 11C 18 25.666666666666668 0 25.666666666666668 0 11Z" stroke="rgba(255,102,102,1)" stroke-width="2" fill-opacity="1" fill="#ffffff"></path><g id="SvgjsG1558"><text id="SvgjsText1559" font-family="微软雅黑" text-anchor="middle" font-size="13px" width="0" fill="#323232" font-weight="400" align="middle" anchor="middle" family="微软雅黑" size="13px" weight="400" font-style="" opacity="1" y="1.05" transform="rotate(0)"></text></g></g><g id="SvgjsG1560" transform="translate(755.5,271.75)"><path id="SvgjsPath1561" d="M 0 0L 175 0L 175 22L 0 22Z" stroke="none" fill="none"></path><g id="SvgjsG1562"><text id="SvgjsText1563" font-family="微软雅黑" text-anchor="start" font-size="17px" width="155px" fill="#323232" font-weight="700" align="middle" anchor="start" family="微软雅黑" size="17px" weight="700" font-style="" opacity="1" y="-2.05" transform="rotate(0)"><tspan id="SvgjsTspan1564" dy="21" x="10"><tspan id="SvgjsTspan1565" style="text-decoration:;">徐家棚（7号线）</tspan></tspan></text></g></g><g id="SvgjsG1566" transform="translate(538.3290731671307,247.75)"><path id="SvgjsPath1567" d="M 0 0L 111.97861914056182 0L 111.97861914056182 22L 0 22Z" stroke="none" fill="none"></path><g id="SvgjsG1568"><text id="SvgjsText1569" font-family="微软雅黑" text-anchor="start" font-size="17px" width="92px" fill="#323232" font-weight="700" align="middle" anchor="start" family="微软雅黑" size="17px" weight="700" font-style="" opacity="1" y="-2.05" transform="rotate(0)"><tspan id="SvgjsTspan1570" dy="21" x="10"><tspan id="SvgjsTspan1571" style="text-decoration:;">三阳路</tspan></tspan></text></g></g><g id="SvgjsG1572" transform="translate(402.7938391703592,247.75)"><path id="SvgjsPath1573" d="M 0 0L 109.05231467579472 0L 109.05231467579472 22L 0 22Z" stroke="none" fill="none"></path><g id="SvgjsG1574"><text id="SvgjsText1575" font-family="微软雅黑" text-anchor="start" font-size="17px" width="90px" fill="#323232" font-weight="700" align="middle" anchor="start" family="微软雅黑" size="17px" weight="700" font-style="" opacity="1" y="-2.05" transform="rotate(0)"><tspan id="SvgjsTspan1576" dy="21" x="10"><tspan id="SvgjsTspan1577" style="text-decoration:;">香港路</tspan></tspan></text></g></g><g id="SvgjsG1578" transform="translate(351.5,315.6582225062689)"><path id="SvgjsPath1579" d="M 0 0L 175 0L 175 22L 0 22Z" stroke="none" fill="none"></path><g id="SvgjsG1580"><text id="SvgjsText1581" font-family="微软雅黑" text-anchor="start" font-size="17px" width="155px" fill="#323232" font-weight="700" align="middle" anchor="start" family="微软雅黑" size="17px" weight="700" font-style="" opacity="1" y="-2.05" transform="rotate(0)"><tspan id="SvgjsTspan1582" dy="21" x="10"><tspan id="SvgjsTspan1583" style="text-decoration:;">取水楼</tspan></tspan></text></g></g><g id="SvgjsG1584" transform="translate(238.46893330699174,351.863412712552)"><path id="SvgjsPath1585" d="M 0 0L 175 0L 175 22L 0 22Z" stroke="none" fill="none"></path><g id="SvgjsG1586"><text id="SvgjsText1587" font-family="微软雅黑" text-anchor="start" font-size="17px" width="155px" fill="#323232" font-weight="700" align="middle" anchor="start" family="微软雅黑" size="17px" weight="700" font-style="" opacity="1" y="-2.05" transform="rotate(0)"><tspan id="SvgjsTspan1588" dy="21" x="10"><tspan id="SvgjsTspan1589" style="text-decoration:;">王家墩东</tspan></tspan></text></g></g><g id="SvgjsG1590" transform="translate(139.7276745657315,301.8298163725872)"><path id="SvgjsPath1591" d="M 0 0L 175 0L 175 22L 0 22Z" stroke="none" fill="none"></path><g id="SvgjsG1592"><text id="SvgjsText1593" font-family="微软雅黑" text-anchor="start" font-size="17px" width="155px" fill="#323232" font-weight="700" align="middle" anchor="start" family="微软雅黑" size="17px" weight="700" font-style="" opacity="1" y="-2.05" transform="rotate(0)"><tspan id="SvgjsTspan1594" dy="21" x="10"><tspan id="SvgjsTspan1595" style="text-decoration:;">武汉商务区</tspan></tspan></text></g></g><g id="SvgjsG1596" transform="translate(48.923076923076565,230.1346153846155)"><path id="SvgjsPath1597" d="M 0 0L 142 0L 142 22L 0 22Z" stroke="none" fill="none"></path><g id="SvgjsG1598"><text id="SvgjsText1599" font-family="微软雅黑" text-anchor="start" font-size="17px" width="122px" fill="#323232" font-weight="700" align="middle" anchor="start" family="微软雅黑" size="17px" weight="700" font-style="" opacity="1" y="-2.05" transform="rotate(0)"><tspan id="SvgjsTspan1600" dy="21" x="10"><tspan id="SvgjsTspan1601" style="text-decoration:;">常码头</tspan></tspan></text></g></g><g id="SvgjsG1602" transform="translate(50.5350104772653,125.51923076923077)"><path id="SvgjsPath1603" d="M 0 0L 142 0L 142 22L 0 22Z" stroke="none" fill="none"></path><g id="SvgjsG1604"><text id="SvgjsText1605" font-family="微软雅黑" text-anchor="start" font-size="17px" width="122px" fill="#323232" font-weight="700" align="middle" anchor="start" family="微软雅黑" size="17px" weight="700" font-style="" opacity="1" y="-2.05" transform="rotate(0)"><tspan id="SvgjsTspan1606" dy="21" x="10"><tspan id="SvgjsTspan1607" style="text-decoration:;">园博园</tspan></tspan></text></g></g><g id="SvgjsG1608" transform="translate(48.91776759815991,27.057692307692406)"><path id="SvgjsPath1609" d="M 0 0L 142 0L 142 22L 0 22Z" stroke="none" fill="none"></path><g id="SvgjsG1610"><text id="SvgjsText1611" font-family="微软雅黑" text-anchor="start" font-size="17px" width="122px" fill="#323232" font-weight="700" align="middle" anchor="start" family="微软雅黑" size="17px" weight="700" font-style="" opacity="1" y="-2.05" transform="rotate(0)"><tspan id="SvgjsTspan1612" dy="21" x="10"><tspan id="SvgjsTspan1613" style="text-decoration:;">园博园北</tspan></tspan></text></g></g></svg>